<?xml version="1.0" encoding="UTF-8" standalone="no"?>
<!DOCTYPE svg PUBLIC "-//W3C//DTD SVG 1.1//EN"
 "http://www.w3.org/Graphics/SVG/1.1/DTD/svg11.dtd">
<!-- Generated by graphviz version 2.36.0 (20140111.2315)
 -->
<!-- Title: G Pages: 1 -->
<svg width="268pt" height="852pt"
 viewBox="0.00 0.00 268.00 852.00" xmlns="http://www.w3.org/2000/svg" xmlns:xlink="http://www.w3.org/1999/xlink">
<g id="graph0" class="graph" transform="scale(1 1) rotate(0) translate(4 848)">
<title>G</title>
<polygon fill="white" stroke="none" points="-4,4 -4,-848 264,-848 264,4 -4,4"/>
<!-- n1 -->
<g id="node1" class="node"><title>n1</title>
<g id="a_node1"><a xlink:title="[[string &quot;...&quot;]]:8_">
<ellipse fill="none" stroke="black" cx="130" cy="-191" rx="125.237" ry="58.8803"/>
<text text-anchor="middle" x="130" y="-217.3" font-family="Times,serif" font-size="14.00">Node1</text>
<text text-anchor="start" x="49.5" y="-202.3" font-family="Times,serif" font-size="14.00">input = {Tensor[10]}</text>
<text text-anchor="start" x="49.5" y="-187.3" font-family="Times,serif" font-size="14.00">module = nn.Linear(10 &#45;&gt; 1)</text>
<text text-anchor="start" x="49.5" y="-172.3" font-family="Times,serif" font-size="14.00">gradOutput = {Tensor[1]}</text>
<text text-anchor="middle" x="130" y="-157.3" font-family="Times,serif" font-size="14.00">reverseMap = {}</text>
</a>
</g>
</g>
<!-- n2 -->
<g id="node2" class="node"><title>n2</title>
<g id="a_node2"><a xlink:title="[[C]]:&#45;1_">
<ellipse fill="none" stroke="black" cx="130" cy="-48" rx="115.448" ry="48.1667"/>
<text text-anchor="middle" x="130" y="-66.8" font-family="Times,serif" font-size="14.00">Node2</text>
<text text-anchor="start" x="56" y="-51.8" font-family="Times,serif" font-size="14.00">input = {Tensor[1]}</text>
<text text-anchor="start" x="56" y="-36.8" font-family="Times,serif" font-size="14.00">gradOutput = {Tensor[1]}</text>
<text text-anchor="middle" x="130" y="-21.8" font-family="Times,serif" font-size="14.00">reverseMap = {}</text>
</a>
</g>
</g>
<!-- n1&#45;&gt;n2 -->
<g id="edge1" class="edge"><title>n1&#45;&gt;n2</title>
<path fill="none" stroke="black" d="M130,-132.243C130,-123.7 130,-114.899 130,-106.364"/>
<polygon fill="black" stroke="black" points="133.5,-106.121 130,-96.1209 126.5,-106.121 133.5,-106.121"/>
</g>
<!-- n3 -->
<g id="node3" class="node"><title>n3</title>
<g id="a_node3"><a xlink:title="[[string &quot;...&quot;]]:7_">
<ellipse fill="none" stroke="black" cx="130" cy="-345" rx="120.373" ry="58.8803"/>
<text text-anchor="middle" x="130" y="-371.3" font-family="Times,serif" font-size="14.00">Node3</text>
<text text-anchor="start" x="52.5" y="-356.3" font-family="Times,serif" font-size="14.00">input = {Tensor[10]}</text>
<text text-anchor="start" x="52.5" y="-341.3" font-family="Times,serif" font-size="14.00">module = nn.Tanh</text>
<text text-anchor="start" x="52.5" y="-326.3" font-family="Times,serif" font-size="14.00">gradOutput = {Tensor[10]}</text>
<text text-anchor="middle" x="130" y="-311.3" font-family="Times,serif" font-size="14.00">reverseMap = {}</text>
</a>
</g>
</g>
<!-- n3&#45;&gt;n1 -->
<g id="edge2" class="edge"><title>n3&#45;&gt;n1</title>
<path fill="none" stroke="black" d="M130,-286.102C130,-277.539 130,-268.651 130,-259.907"/>
<polygon fill="black" stroke="black" points="133.5,-259.737 130,-249.737 126.5,-259.737 133.5,-259.737"/>
</g>
<!-- n4 -->
<g id="node4" class="node"><title>n4</title>
<g id="a_node4"><a xlink:title="[[string &quot;...&quot;]]:7_">
<ellipse fill="none" stroke="black" cx="130" cy="-499" rx="130.162" ry="58.8803"/>
<text text-anchor="middle" x="130" y="-525.3" font-family="Times,serif" font-size="14.00">Node4</text>
<text text-anchor="start" x="46" y="-510.3" font-family="Times,serif" font-size="14.00">input = {Tensor[20]}</text>
<text text-anchor="start" x="46" y="-495.3" font-family="Times,serif" font-size="14.00">module = nn.Linear(20 &#45;&gt; 10)</text>
<text text-anchor="start" x="46" y="-480.3" font-family="Times,serif" font-size="14.00">gradOutput = {Tensor[10]}</text>
<text text-anchor="middle" x="130" y="-465.3" font-family="Times,serif" font-size="14.00">reverseMap = {}</text>
</a>
</g>
</g>
<!-- n4&#45;&gt;n3 -->
<g id="edge3" class="edge"><title>n4&#45;&gt;n3</title>
<path fill="none" stroke="black" d="M130,-440.102C130,-431.539 130,-422.651 130,-413.907"/>
<polygon fill="black" stroke="black" points="133.5,-413.737 130,-403.737 126.5,-413.737 133.5,-413.737"/>
</g>
<!-- n5 -->
<g id="node5" class="node"><title>n5</title>
<g id="a_node5"><a xlink:title="[[string &quot;...&quot;]]:3_">
<ellipse fill="none" stroke="black" cx="130" cy="-653" rx="120.373" ry="58.8803"/>
<text text-anchor="middle" x="130" y="-679.3" font-family="Times,serif" font-size="14.00">Node5</text>
<text text-anchor="start" x="52.5" y="-664.3" font-family="Times,serif" font-size="14.00">input = {Tensor[20]}</text>
<text text-anchor="start" x="52.5" y="-649.3" font-family="Times,serif" font-size="14.00">module = nn.Identity</text>
<text text-anchor="start" x="52.5" y="-634.3" font-family="Times,serif" font-size="14.00">gradOutput = {Tensor[20]}</text>
<text text-anchor="middle" x="130" y="-619.3" font-family="Times,serif" font-size="14.00">reverseMap = {}</text>
</a>
</g>
</g>
<!-- n5&#45;&gt;n4 -->
<g id="edge4" class="edge"><title>n5&#45;&gt;n4</title>
<path fill="none" stroke="black" d="M130,-594.102C130,-585.539 130,-576.651 130,-567.907"/>
<polygon fill="black" stroke="black" points="133.5,-567.737 130,-557.737 126.5,-567.737 133.5,-567.737"/>
</g>
<!-- n6 -->
<g id="node6" class="node"><title>n6</title>
<g id="a_node6"><a xlink:title="[[C]]:&#45;1_">
<ellipse fill="none" stroke="black" cx="130" cy="-796" rx="120.373" ry="48.1667"/>
<text text-anchor="middle" x="130" y="-814.8" font-family="Times,serif" font-size="14.00">Node6</text>
<text text-anchor="start" x="52.5" y="-799.8" font-family="Times,serif" font-size="14.00">input = {Tensor[20]}</text>
<text text-anchor="start" x="52.5" y="-784.8" font-family="Times,serif" font-size="14.00">gradOutput = {Tensor[20]}</text>
<text text-anchor="middle" x="130" y="-769.8" font-family="Times,serif" font-size="14.00">reverseMap = {}</text>
</a>
</g>
</g>
<!-- n6&#45;&gt;n5 -->
<g id="edge5" class="edge"><title>n6&#45;&gt;n5</title>
<path fill="none" stroke="black" d="M130,-747.657C130,-739.376 130,-730.617 130,-721.909"/>
<polygon fill="black" stroke="black" points="133.5,-721.744 130,-711.744 126.5,-721.744 133.5,-721.744"/>
</g>
</g>
</svg>
